<svg xmlns="http://www.w3.org/2000/svg" xmlns:xlink="http://www.w3.org/1999/xlink" width="150" zoomAndPan="magnify" viewBox="0 0 112.5 30.000001" height="40" preserveAspectRatio="xMidYMid meet" version="1.0"><defs><clipPath id="189581e091"><path d="M 41.570312 0 L 70.601562 0 L 70.601562 29.03125 L 41.570312 29.03125 Z M 41.570312 0 " clip-rule="nonzero"/></clipPath></defs><g clip-path="url(#189581e091)"><path fill="#fefcf7" d="M 41.574219 0 L 70.597656 0 L 70.597656 29.03125 L 41.574219 29.03125 Z M 41.574219 0 " fill-opacity="1" fill-rule="nonzero"/></g><path fill="#fefcf7" d="M 56.585938 9.582031 C 56.632812 9.570312 56.632812 9.570312 56.683594 9.582031 C 56.753906 9.628906 56.808594 9.691406 56.867188 9.757812 C 56.898438 9.796875 56.9375 9.835938 56.972656 9.871094 C 57 9.898438 57.027344 9.925781 57.054688 9.953125 L 57.117188 10.011719 L 57.25 10.148438 L 57.285156 10.179688 C 57.308594 10.207031 57.332031 10.230469 57.359375 10.253906 C 57.386719 10.285156 57.417969 10.308594 57.449219 10.335938 C 57.5 10.378906 57.546875 10.429688 57.589844 10.484375 C 57.636719 10.535156 57.683594 10.582031 57.734375 10.628906 L 57.773438 10.671875 C 57.804688 10.699219 57.835938 10.726562 57.867188 10.753906 C 57.921875 10.800781 57.96875 10.851562 58.015625 10.90625 C 58.0625 10.960938 58.117188 11.011719 58.175781 11.0625 C 58.230469 11.105469 58.273438 11.15625 58.320312 11.210938 C 58.363281 11.261719 58.410156 11.308594 58.460938 11.355469 L 58.5 11.394531 C 58.53125 11.425781 58.566406 11.457031 58.597656 11.484375 C 58.644531 11.523438 58.679688 11.566406 58.71875 11.613281 L 58.757812 11.644531 C 58.800781 11.675781 58.800781 11.675781 58.832031 11.714844 C 58.863281 11.761719 58.863281 11.761719 58.914062 11.796875 C 58.957031 11.835938 58.988281 11.875 59.027344 11.917969 C 59.058594 11.945312 59.089844 11.972656 59.121094 12 C 59.167969 12.042969 59.210938 12.089844 59.253906 12.136719 C 59.28125 12.171875 59.304688 12.199219 59.339844 12.226562 C 59.390625 12.265625 59.425781 12.308594 59.46875 12.355469 C 59.492188 12.386719 59.492188 12.386719 59.523438 12.414062 L 59.542969 12.433594 L 59.542969 12.484375 C 59.515625 12.511719 59.515625 12.511719 59.480469 12.539062 C 59.4375 12.574219 59.410156 12.597656 59.382812 12.644531 L 59.347656 12.644531 L 59.335938 12.675781 C 59.316406 12.710938 59.300781 12.734375 59.269531 12.757812 L 59.234375 12.757812 L 59.222656 12.785156 C 59.199219 12.828125 59.171875 12.855469 59.140625 12.890625 L 59.101562 12.929688 C 59.078125 12.953125 59.078125 12.953125 59.058594 12.972656 L 59.011719 13.019531 C 58.980469 13.046875 58.949219 13.078125 58.917969 13.109375 C 58.878906 13.148438 58.839844 13.1875 58.800781 13.230469 C 58.761719 13.265625 58.726562 13.304688 58.6875 13.339844 L 58.644531 13.382812 L 58.605469 13.425781 L 58.570312 13.460938 L 58.542969 13.484375 L 58.507812 13.484375 L 58.496094 13.511719 C 58.476562 13.546875 58.457031 13.570312 58.429688 13.597656 L 58.394531 13.597656 L 58.378906 13.644531 L 58.347656 13.644531 L 58.335938 13.671875 C 58.308594 13.71875 58.273438 13.753906 58.234375 13.789062 L 58.203125 13.789062 L 58.167969 13.855469 L 58.136719 13.855469 L 58.136719 13.886719 C 58.109375 13.910156 58.082031 13.929688 58.054688 13.953125 L 58.027344 13.988281 L 58.007812 14.015625 L 57.976562 14.015625 L 57.976562 14.046875 C 57.953125 14.074219 57.953125 14.074219 57.925781 14.097656 L 57.894531 14.097656 L 57.882812 14.125 C 57.863281 14.160156 57.84375 14.183594 57.8125 14.210938 L 57.78125 14.210938 L 57.769531 14.238281 C 57.746094 14.285156 57.710938 14.316406 57.675781 14.351562 L 57.652344 14.375 C 57.628906 14.398438 57.601562 14.425781 57.578125 14.449219 L 57.527344 14.5 C 57.488281 14.539062 57.453125 14.574219 57.417969 14.609375 C 57.371094 14.65625 57.324219 14.703125 57.277344 14.75 C 57.242188 14.785156 57.207031 14.820312 57.171875 14.855469 C 57.152344 14.871094 57.136719 14.890625 57.121094 14.90625 C 57.097656 14.929688 57.070312 14.953125 57.046875 14.976562 L 57.007812 15.019531 L 56.972656 15.046875 L 56.941406 15.046875 L 56.925781 15.097656 C 56.898438 15.121094 56.898438 15.121094 56.867188 15.148438 C 56.820312 15.1875 56.78125 15.226562 56.738281 15.265625 C 56.703125 15.300781 56.667969 15.335938 56.628906 15.367188 C 56.566406 15.421875 56.507812 15.480469 56.449219 15.542969 L 56.417969 15.570312 C 56.378906 15.613281 56.339844 15.652344 56.300781 15.695312 C 56.082031 15.917969 56.082031 15.917969 55.9375 15.96875 C 55.875 15.984375 55.8125 15.992188 55.746094 15.984375 C 55.660156 15.960938 55.582031 15.929688 55.515625 15.871094 C 55.488281 15.839844 55.464844 15.808594 55.4375 15.773438 C 55.394531 15.730469 55.347656 15.6875 55.300781 15.644531 C 55.253906 15.605469 55.21875 15.5625 55.179688 15.515625 C 55.136719 15.472656 55.09375 15.429688 55.042969 15.390625 C 54.988281 15.34375 54.945312 15.292969 54.898438 15.238281 C 54.863281 15.199219 54.828125 15.164062 54.792969 15.128906 C 54.628906 14.96875 54.628906 14.96875 54.59375 14.929688 C 54.558594 14.894531 54.523438 14.863281 54.488281 14.832031 C 54.429688 14.785156 54.382812 14.734375 54.335938 14.675781 C 54.296875 14.632812 54.253906 14.597656 54.210938 14.558594 C 54.171875 14.527344 54.132812 14.488281 54.097656 14.453125 C 54.070312 14.425781 54.042969 14.402344 54.015625 14.375 C 53.933594 14.304688 53.859375 14.230469 53.789062 14.148438 C 53.71875 14.070312 53.644531 14 53.570312 13.925781 C 53.546875 13.90625 53.527344 13.882812 53.503906 13.859375 C 53.46875 13.820312 53.46875 13.820312 53.429688 13.792969 C 53.378906 13.753906 53.339844 13.707031 53.300781 13.660156 C 53.246094 13.597656 53.1875 13.542969 53.125 13.492188 C 53.074219 13.449219 53.046875 13.410156 53.015625 13.355469 C 52.976562 13.316406 52.941406 13.277344 52.902344 13.242188 C 52.886719 13.226562 52.867188 13.210938 52.851562 13.195312 C 52.90625 13.140625 52.957031 13.121094 53.027344 13.101562 C 53.054688 13.09375 53.082031 13.085938 53.109375 13.082031 L 53.109375 13.046875 C 53.132812 13.03125 53.15625 13.015625 53.179688 13.003906 C 53.207031 12.984375 53.234375 12.964844 53.257812 12.941406 C 53.304688 12.902344 53.304688 12.902344 53.355469 12.871094 L 53.371094 12.824219 L 53.402344 12.824219 L 53.414062 12.796875 C 53.441406 12.746094 53.472656 12.714844 53.515625 12.675781 L 53.539062 12.648438 C 53.566406 12.621094 53.59375 12.59375 53.621094 12.570312 C 53.640625 12.550781 53.660156 12.527344 53.679688 12.507812 C 53.734375 12.457031 53.785156 12.402344 53.839844 12.351562 C 53.894531 12.292969 53.953125 12.238281 54.007812 12.183594 C 54.113281 12.078125 54.21875 11.972656 54.324219 11.867188 C 54.445312 11.746094 54.566406 11.628906 54.683594 11.507812 C 54.890625 11.304688 55.097656 11.097656 55.300781 10.894531 L 55.328125 10.867188 L 55.398438 10.800781 L 55.4375 10.757812 L 55.480469 10.714844 C 55.519531 10.675781 55.519531 10.675781 55.554688 10.632812 C 55.597656 10.578125 55.648438 10.539062 55.699219 10.496094 C 55.726562 10.46875 55.75 10.441406 55.777344 10.414062 L 55.808594 10.371094 L 55.84375 10.371094 L 55.855469 10.34375 C 55.878906 10.300781 55.902344 10.273438 55.9375 10.238281 L 56.019531 10.15625 L 56.066406 10.113281 C 56.105469 10.074219 56.140625 10.039062 56.179688 10 C 56.234375 9.945312 56.289062 9.890625 56.34375 9.835938 C 56.375 9.808594 56.402344 9.78125 56.429688 9.75 L 56.472656 9.710938 L 56.507812 9.675781 C 56.539062 9.644531 56.539062 9.644531 56.5625 9.609375 Z M 56.585938 9.582031 " fill-opacity="1" fill-rule="nonzero"/><path fill="#08869d" d="M 55.035156 6.386719 C 55.0625 6.390625 55.0625 6.390625 55.097656 6.402344 C 55.152344 6.445312 55.199219 6.496094 55.25 6.546875 L 55.328125 6.625 L 55.367188 6.660156 L 55.390625 6.695312 C 55.390625 6.726562 55.390625 6.726562 55.375 6.757812 C 55.351562 6.785156 55.351562 6.785156 55.320312 6.816406 L 55.285156 6.847656 L 55.25 6.882812 C 55.171875 6.957031 55.097656 7.035156 55.027344 7.117188 C 54.996094 7.152344 54.960938 7.1875 54.925781 7.21875 L 54.886719 7.25 L 54.855469 7.273438 L 54.824219 7.273438 L 54.824219 7.304688 C 54.785156 7.347656 54.785156 7.347656 54.742188 7.386719 L 54.710938 7.386719 L 54.699219 7.417969 L 54.679688 7.453125 L 54.628906 7.46875 L 54.617188 7.496094 C 54.589844 7.550781 54.546875 7.589844 54.5 7.628906 L 54.46875 7.628906 L 54.453125 7.675781 L 54.371094 7.742188 C 54.347656 7.769531 54.320312 7.800781 54.296875 7.832031 L 54.273438 7.855469 L 54.242188 7.855469 L 54.230469 7.882812 C 54.207031 7.925781 54.179688 7.953125 54.148438 7.984375 L 53.964844 8.167969 L 53.933594 8.195312 L 53.902344 8.195312 L 53.894531 8.21875 C 53.863281 8.273438 53.820312 8.316406 53.773438 8.355469 L 53.742188 8.355469 L 53.726562 8.382812 C 53.707031 8.421875 53.6875 8.441406 53.660156 8.472656 L 53.597656 8.535156 L 53.5625 8.566406 C 53.527344 8.601562 53.492188 8.636719 53.457031 8.671875 C 53.421875 8.707031 53.382812 8.742188 53.347656 8.777344 C 53.328125 8.800781 53.304688 8.820312 53.28125 8.84375 C 53.230469 8.894531 53.183594 8.945312 53.136719 8.996094 C 53.070312 9.078125 52.992188 9.152344 52.917969 9.226562 L 52.871094 9.273438 C 52.832031 9.3125 52.792969 9.351562 52.753906 9.390625 C 52.714844 9.429688 52.671875 9.46875 52.632812 9.511719 C 52.574219 9.570312 52.515625 9.628906 52.453125 9.6875 C 52.382812 9.761719 52.308594 9.835938 52.234375 9.90625 C 52.199219 9.945312 52.164062 9.980469 52.128906 10.015625 L 52.070312 10.070312 C 52.046875 10.097656 52.019531 10.125 51.992188 10.152344 L 51.964844 10.175781 C 51.925781 10.21875 51.882812 10.257812 51.835938 10.289062 L 51.800781 10.289062 L 51.796875 10.316406 C 51.78125 10.367188 51.753906 10.394531 51.714844 10.429688 L 51.667969 10.476562 C 51.652344 10.488281 51.636719 10.503906 51.621094 10.519531 C 51.53125 10.609375 51.441406 10.695312 51.359375 10.792969 C 51.300781 10.855469 51.238281 10.917969 51.175781 10.976562 C 51.128906 11.023438 51.09375 11.054688 51.066406 11.117188 C 51.050781 11.191406 51.046875 11.261719 51.066406 11.335938 C 51.152344 11.535156 51.371094 11.699219 51.519531 11.851562 L 51.582031 11.910156 C 51.625 11.953125 51.667969 11.996094 51.707031 12.039062 C 51.761719 12.09375 51.816406 12.148438 51.871094 12.203125 C 51.914062 12.246094 51.957031 12.285156 52 12.328125 C 52.019531 12.347656 52.039062 12.367188 52.058594 12.386719 C 52.085938 12.417969 52.113281 12.445312 52.140625 12.472656 L 52.167969 12.496094 C 52.269531 12.597656 52.371094 12.660156 52.511719 12.699219 C 52.582031 12.714844 52.636719 12.714844 52.707031 12.695312 C 52.9375 12.609375 53.109375 12.390625 53.277344 12.222656 C 53.316406 12.183594 53.355469 12.144531 53.394531 12.109375 L 53.46875 12.035156 L 53.5 12 L 53.535156 11.96875 L 53.5625 11.9375 C 53.589844 11.910156 53.617188 11.878906 53.640625 11.851562 C 53.738281 11.738281 53.84375 11.636719 53.949219 11.535156 L 54.019531 11.460938 C 54.085938 11.394531 54.152344 11.332031 54.21875 11.265625 C 54.285156 11.195312 54.355469 11.128906 54.421875 11.058594 C 54.554688 10.929688 54.683594 10.800781 54.8125 10.671875 C 54.960938 10.523438 55.109375 10.375 55.257812 10.226562 C 55.511719 9.976562 55.761719 9.722656 56.015625 9.472656 L 56.046875 9.4375 L 56.15625 9.328125 C 56.179688 9.308594 56.203125 9.285156 56.226562 9.261719 C 56.265625 9.222656 56.308594 9.175781 56.347656 9.132812 C 56.40625 9.070312 56.464844 9.003906 56.527344 8.941406 L 56.566406 8.902344 C 56.601562 8.871094 56.601562 8.871094 56.640625 8.859375 L 56.667969 8.855469 L 56.683594 8.902344 C 56.703125 8.914062 56.726562 8.925781 56.746094 8.933594 C 56.773438 8.957031 56.773438 8.957031 56.796875 8.980469 L 56.882812 9.066406 C 56.917969 9.101562 56.953125 9.136719 56.988281 9.171875 L 57.058594 9.242188 C 57.109375 9.292969 57.15625 9.339844 57.207031 9.390625 C 57.273438 9.453125 57.335938 9.519531 57.398438 9.582031 C 57.449219 9.632812 57.5 9.679688 57.546875 9.730469 C 57.570312 9.753906 57.59375 9.777344 57.617188 9.800781 C 57.652344 9.832031 57.683594 9.867188 57.71875 9.898438 L 57.746094 9.929688 C 57.769531 9.953125 57.792969 9.976562 57.8125 10 L 57.8125 10.03125 L 57.839844 10.042969 C 57.890625 10.070312 57.921875 10.105469 57.960938 10.144531 L 57.984375 10.167969 C 58.003906 10.183594 58.019531 10.199219 58.035156 10.214844 C 58.058594 10.242188 58.085938 10.265625 58.109375 10.292969 C 58.125 10.308594 58.144531 10.324219 58.160156 10.339844 L 58.203125 10.382812 L 58.234375 10.417969 L 58.234375 10.453125 L 58.28125 10.46875 L 58.28125 10.5 L 58.308594 10.511719 C 58.359375 10.539062 58.398438 10.578125 58.441406 10.621094 L 58.464844 10.644531 C 58.484375 10.667969 58.503906 10.6875 58.523438 10.710938 L 58.523438 10.742188 L 58.550781 10.753906 C 58.605469 10.78125 58.644531 10.824219 58.6875 10.867188 L 58.714844 10.894531 C 58.734375 10.914062 58.753906 10.933594 58.773438 10.953125 C 58.804688 10.984375 58.832031 11.011719 58.863281 11.042969 L 58.921875 11.101562 L 58.949219 11.125 C 58.96875 11.148438 58.988281 11.171875 59.007812 11.195312 L 59.007812 11.226562 L 59.039062 11.238281 L 59.074219 11.257812 L 59.105469 11.324219 L 59.136719 11.335938 C 59.1875 11.363281 59.230469 11.40625 59.269531 11.453125 L 59.269531 11.484375 L 59.292969 11.492188 C 59.347656 11.523438 59.390625 11.566406 59.429688 11.613281 L 59.429688 11.644531 L 59.457031 11.65625 C 59.507812 11.683594 59.546875 11.722656 59.585938 11.765625 L 59.613281 11.789062 C 59.632812 11.8125 59.652344 11.832031 59.671875 11.855469 L 59.671875 11.886719 L 59.699219 11.898438 C 59.75 11.929688 59.792969 11.96875 59.835938 12.011719 L 59.863281 12.039062 C 59.882812 12.058594 59.902344 12.078125 59.921875 12.097656 C 59.949219 12.128906 59.980469 12.160156 60.011719 12.1875 L 60.066406 12.246094 L 60.09375 12.273438 C 60.117188 12.292969 60.136719 12.316406 60.15625 12.339844 L 60.15625 12.371094 L 60.1875 12.386719 C 60.222656 12.402344 60.222656 12.402344 60.253906 12.433594 C 60.253906 12.464844 60.253906 12.464844 60.238281 12.5 C 60.207031 12.535156 60.207031 12.535156 60.171875 12.566406 L 60.140625 12.566406 L 60.128906 12.59375 C 60.101562 12.636719 60.070312 12.664062 60.03125 12.699219 C 59.972656 12.75 59.917969 12.800781 59.867188 12.855469 C 59.847656 12.875 59.828125 12.890625 59.808594 12.910156 L 59.78125 12.9375 C 59.761719 12.960938 59.738281 12.984375 59.714844 13.003906 C 59.683594 13.035156 59.65625 13.066406 59.625 13.09375 L 59.582031 13.140625 L 59.558594 13.167969 C 59.535156 13.1875 59.515625 13.207031 59.496094 13.226562 L 59.460938 13.226562 L 59.449219 13.253906 C 59.386719 13.371094 59.277344 13.460938 59.171875 13.539062 C 59.132812 13.570312 59.105469 13.605469 59.074219 13.644531 C 59.042969 13.671875 59.011719 13.699219 58.976562 13.726562 C 58.925781 13.773438 58.878906 13.828125 58.832031 13.878906 C 58.785156 13.929688 58.742188 13.976562 58.6875 14.015625 C 58.625 14.074219 58.570312 14.136719 58.519531 14.199219 L 58.492188 14.226562 L 58.460938 14.226562 L 58.460938 14.257812 C 58.410156 14.316406 58.351562 14.363281 58.292969 14.414062 C 58.261719 14.4375 58.261719 14.4375 58.234375 14.484375 L 58.203125 14.484375 L 58.203125 14.515625 C 58.179688 14.535156 58.15625 14.554688 58.132812 14.574219 C 58.074219 14.621094 58.023438 14.675781 57.976562 14.734375 C 57.9375 14.78125 57.894531 14.816406 57.847656 14.855469 L 57.828125 14.886719 L 57.796875 14.886719 L 57.765625 14.953125 L 57.734375 14.953125 L 57.734375 14.984375 C 57.6875 15.035156 57.636719 15.078125 57.585938 15.121094 C 57.539062 15.160156 57.496094 15.207031 57.457031 15.257812 C 57.433594 15.289062 57.433594 15.289062 57.410156 15.304688 L 57.378906 15.304688 L 57.363281 15.335938 C 57.34375 15.371094 57.328125 15.394531 57.296875 15.417969 L 57.265625 15.417969 L 57.25 15.449219 C 57.230469 15.484375 57.214844 15.507812 57.183594 15.53125 L 57.152344 15.53125 L 57.152344 15.566406 C 57.105469 15.613281 57.066406 15.648438 57.003906 15.675781 L 56.988281 15.726562 C 56.964844 15.753906 56.9375 15.78125 56.910156 15.804688 C 56.863281 15.851562 56.816406 15.898438 56.773438 15.945312 C 56.484375 16.234375 56.484375 16.234375 56.421875 16.253906 L 56.390625 16.257812 L 56.390625 16.289062 C 56.332031 16.324219 56.273438 16.355469 56.214844 16.386719 L 56.167969 16.410156 C 56.054688 16.460938 55.953125 16.476562 55.832031 16.476562 L 55.789062 16.476562 C 55.648438 16.472656 55.523438 16.4375 55.398438 16.367188 L 55.351562 16.34375 C 55.164062 16.230469 55.011719 16.0625 54.859375 15.910156 L 54.785156 15.835938 C 54.734375 15.785156 54.683594 15.734375 54.632812 15.683594 C 54.566406 15.617188 54.5 15.550781 54.4375 15.488281 C 54.386719 15.4375 54.335938 15.386719 54.285156 15.335938 L 54.214844 15.265625 C 54.179688 15.230469 54.144531 15.195312 54.113281 15.164062 L 54.082031 15.132812 C 54 15.050781 53.921875 14.960938 53.847656 14.867188 C 53.8125 14.832031 53.785156 14.808594 53.746094 14.777344 C 53.675781 14.726562 53.617188 14.671875 53.554688 14.609375 L 53.519531 14.574219 C 53.484375 14.539062 53.445312 14.5 53.410156 14.464844 L 53.332031 14.386719 C 53.277344 14.332031 53.222656 14.277344 53.167969 14.222656 C 53.101562 14.15625 53.03125 14.085938 52.960938 14.015625 C 52.910156 13.964844 52.855469 13.910156 52.800781 13.855469 C 52.777344 13.832031 52.75 13.804688 52.726562 13.78125 C 52.6875 13.746094 52.652344 13.707031 52.617188 13.671875 L 52.585938 13.640625 C 52.5625 13.617188 52.535156 13.589844 52.511719 13.566406 L 52.511719 13.53125 L 52.484375 13.519531 L 52.449219 13.5 C 52.4375 13.480469 52.425781 13.457031 52.417969 13.433594 L 52.367188 13.417969 C 52.34375 13.394531 52.34375 13.394531 52.316406 13.363281 C 52.265625 13.300781 52.207031 13.242188 52.148438 13.1875 L 52.125 13.160156 L 52.125 13.128906 L 52.097656 13.117188 C 51.953125 13.039062 51.839844 12.894531 51.726562 12.78125 C 51.691406 12.75 51.660156 12.71875 51.628906 12.683594 L 51.566406 12.625 L 51.539062 12.59375 C 51.496094 12.554688 51.464844 12.519531 51.433594 12.46875 C 51.382812 12.394531 51.320312 12.335938 51.253906 12.273438 L 51.167969 12.191406 C 51.125 12.144531 51.078125 12.101562 51.03125 12.058594 C 50.988281 12.015625 50.945312 11.972656 50.902344 11.929688 L 50.863281 11.890625 C 50.726562 11.753906 50.621094 11.597656 50.5625 11.414062 C 50.53125 11.28125 50.535156 11.144531 50.570312 11.015625 C 50.65625 10.792969 50.8125 10.621094 50.980469 10.457031 C 51 10.441406 51.019531 10.421875 51.039062 10.402344 C 51.085938 10.355469 51.136719 10.304688 51.183594 10.257812 C 51.261719 10.179688 51.339844 10.105469 51.417969 10.027344 C 51.445312 10 51.472656 9.972656 51.5 9.945312 C 51.582031 9.867188 51.660156 9.789062 51.730469 9.703125 C 51.765625 9.664062 51.804688 9.632812 51.84375 9.597656 C 51.894531 9.554688 51.941406 9.507812 51.984375 9.464844 L 52.011719 9.4375 C 52.046875 9.402344 52.078125 9.367188 52.109375 9.324219 L 52.140625 9.324219 L 52.152344 9.292969 C 52.175781 9.253906 52.203125 9.226562 52.234375 9.191406 L 52.273438 9.15625 L 52.359375 9.070312 C 52.402344 9.027344 52.441406 8.988281 52.480469 8.949219 C 52.523438 8.90625 52.566406 8.863281 52.609375 8.820312 C 52.6875 8.742188 52.769531 8.664062 52.847656 8.582031 C 52.9375 8.492188 53.03125 8.402344 53.121094 8.3125 C 53.320312 8.113281 53.519531 7.914062 53.71875 7.714844 C 53.757812 7.675781 53.796875 7.636719 53.832031 7.597656 C 53.871094 7.546875 53.917969 7.507812 53.96875 7.46875 C 53.988281 7.445312 54.007812 7.421875 54.027344 7.398438 C 54.050781 7.367188 54.078125 7.34375 54.105469 7.320312 C 54.179688 7.257812 54.242188 7.1875 54.304688 7.117188 C 54.328125 7.09375 54.347656 7.070312 54.371094 7.046875 L 54.402344 7.046875 L 54.417969 7.019531 C 54.4375 6.984375 54.457031 6.960938 54.484375 6.929688 L 54.546875 6.867188 L 54.582031 6.835938 C 54.605469 6.8125 54.628906 6.789062 54.652344 6.765625 C 54.6875 6.730469 54.722656 6.695312 54.757812 6.660156 C 54.78125 6.636719 54.804688 6.613281 54.824219 6.589844 L 54.859375 6.558594 L 54.886719 6.527344 L 54.914062 6.503906 L 54.9375 6.484375 L 54.96875 6.484375 L 55 6.417969 L 55.035156 6.417969 Z M 56.585938 9.582031 C 56.546875 9.613281 56.546875 9.613281 56.507812 9.660156 C 56.492188 9.675781 56.476562 9.695312 56.460938 9.710938 C 56.453125 9.722656 56.445312 9.730469 56.4375 9.742188 C 56.382812 9.800781 56.324219 9.859375 56.265625 9.914062 L 56.230469 9.953125 C 56.175781 10.003906 56.125 10.054688 56.074219 10.105469 C 56.035156 10.144531 55.996094 10.179688 55.960938 10.21875 L 55.925781 10.253906 L 55.890625 10.285156 L 55.863281 10.316406 L 55.84375 10.339844 L 55.84375 10.371094 L 55.808594 10.371094 C 55.785156 10.398438 55.785156 10.398438 55.757812 10.429688 C 55.710938 10.488281 55.65625 10.53125 55.601562 10.582031 C 55.570312 10.613281 55.542969 10.644531 55.515625 10.675781 C 55.480469 10.714844 55.445312 10.753906 55.40625 10.789062 L 55.242188 10.953125 C 55.03125 11.160156 54.824219 11.371094 54.617188 11.578125 C 54.496094 11.699219 54.375 11.816406 54.253906 11.9375 C 54.148438 12.042969 54.042969 12.148438 53.9375 12.253906 C 53.882812 12.308594 53.828125 12.363281 53.769531 12.417969 C 53.71875 12.472656 53.664062 12.523438 53.613281 12.574219 C 53.59375 12.59375 53.574219 12.613281 53.554688 12.632812 C 53.53125 12.660156 53.503906 12.683594 53.476562 12.710938 L 53.433594 12.753906 L 53.402344 12.789062 L 53.402344 12.824219 L 53.371094 12.824219 L 53.359375 12.851562 L 53.335938 12.886719 C 53.316406 12.898438 53.292969 12.910156 53.273438 12.917969 L 53.234375 12.957031 C 53.195312 12.996094 53.15625 13.019531 53.109375 13.046875 L 53.109375 13.082031 L 53.074219 13.089844 C 52.984375 13.109375 52.984375 13.109375 52.902344 13.148438 C 52.878906 13.175781 52.878906 13.175781 52.851562 13.210938 L 52.886719 13.238281 L 52.972656 13.316406 C 53.011719 13.351562 53.035156 13.390625 53.0625 13.433594 C 53.09375 13.464844 53.09375 13.464844 53.125 13.492188 C 53.199219 13.554688 53.265625 13.621094 53.328125 13.691406 C 53.371094 13.742188 53.417969 13.789062 53.46875 13.832031 C 53.507812 13.863281 53.542969 13.898438 53.578125 13.933594 L 53.75 14.105469 C 53.816406 14.171875 53.882812 14.238281 53.941406 14.308594 C 53.976562 14.347656 54.011719 14.382812 54.050781 14.414062 C 54.105469 14.460938 54.15625 14.511719 54.210938 14.566406 C 54.230469 14.582031 54.253906 14.601562 54.273438 14.621094 C 54.328125 14.667969 54.375 14.71875 54.421875 14.773438 C 54.453125 14.804688 54.484375 14.832031 54.519531 14.859375 C 54.578125 14.910156 54.628906 14.964844 54.675781 15.023438 C 54.722656 15.078125 54.769531 15.117188 54.824219 15.160156 C 54.867188 15.203125 54.90625 15.242188 54.941406 15.289062 C 54.984375 15.339844 55.035156 15.382812 55.085938 15.425781 C 55.125 15.457031 55.160156 15.496094 55.195312 15.53125 L 55.234375 15.574219 L 55.359375 15.695312 L 55.394531 15.730469 C 55.4375 15.773438 55.4375 15.773438 55.460938 15.804688 C 55.515625 15.875 55.566406 15.914062 55.648438 15.953125 C 55.730469 15.980469 55.789062 15.996094 55.875 15.984375 C 55.996094 15.957031 56.074219 15.902344 56.167969 15.820312 C 56.257812 15.730469 56.347656 15.644531 56.433594 15.554688 C 56.652344 15.332031 56.652344 15.332031 56.753906 15.246094 C 56.785156 15.222656 56.8125 15.191406 56.839844 15.164062 C 56.875 15.128906 56.902344 15.105469 56.941406 15.082031 L 56.941406 15.046875 L 56.96875 15.035156 C 57.015625 15.011719 57.046875 14.980469 57.085938 14.941406 C 57.117188 14.910156 57.148438 14.878906 57.183594 14.84375 L 57.234375 14.792969 C 57.269531 14.757812 57.304688 14.722656 57.34375 14.683594 C 57.386719 14.636719 57.433594 14.59375 57.480469 14.546875 C 57.515625 14.511719 57.554688 14.476562 57.589844 14.4375 C 57.605469 14.421875 57.621094 14.40625 57.640625 14.386719 C 57.664062 14.363281 57.6875 14.339844 57.710938 14.316406 L 57.753906 14.273438 L 57.78125 14.242188 L 57.78125 14.210938 L 57.8125 14.210938 C 57.855469 14.171875 57.855469 14.171875 57.894531 14.128906 L 57.894531 14.097656 L 57.925781 14.097656 C 57.953125 14.074219 57.953125 14.074219 57.976562 14.046875 L 57.976562 14.015625 L 58.003906 14.003906 C 58.050781 13.980469 58.074219 13.945312 58.105469 13.902344 L 58.136719 13.886719 L 58.136719 13.855469 L 58.203125 13.824219 L 58.203125 13.789062 L 58.230469 13.777344 C 58.277344 13.753906 58.308594 13.71875 58.347656 13.675781 L 58.347656 13.644531 L 58.394531 13.628906 L 58.394531 13.597656 L 58.425781 13.582031 C 58.460938 13.566406 58.484375 13.546875 58.507812 13.515625 L 58.507812 13.484375 L 58.535156 13.472656 C 58.578125 13.449219 58.609375 13.421875 58.640625 13.386719 L 58.683594 13.347656 C 58.695312 13.332031 58.710938 13.320312 58.726562 13.304688 L 58.769531 13.261719 C 58.800781 13.230469 58.832031 13.199219 58.863281 13.167969 C 58.902344 13.128906 58.941406 13.089844 58.980469 13.050781 C 59.019531 13.011719 59.054688 12.976562 59.09375 12.9375 L 59.210938 12.820312 L 59.234375 12.789062 L 59.234375 12.757812 L 59.265625 12.746094 C 59.300781 12.726562 59.324219 12.707031 59.347656 12.675781 L 59.347656 12.644531 L 59.382812 12.644531 C 59.410156 12.617188 59.410156 12.617188 59.4375 12.582031 C 59.472656 12.539062 59.496094 12.515625 59.542969 12.484375 C 59.539062 12.453125 59.539062 12.453125 59.527344 12.417969 C 59.5 12.386719 59.5 12.386719 59.464844 12.355469 C 59.417969 12.308594 59.375 12.261719 59.332031 12.210938 C 59.289062 12.164062 59.242188 12.121094 59.195312 12.082031 C 59.160156 12.050781 59.125 12.019531 59.097656 11.980469 C 59.0625 11.933594 59.0625 11.933594 59.019531 11.902344 C 58.96875 11.863281 58.9375 11.820312 58.898438 11.773438 C 58.871094 11.753906 58.84375 11.730469 58.816406 11.710938 L 58.75 11.628906 C 58.722656 11.605469 58.699219 11.585938 58.671875 11.566406 C 58.625 11.523438 58.582031 11.476562 58.542969 11.429688 C 58.5 11.375 58.449219 11.332031 58.394531 11.285156 C 58.34375 11.242188 58.296875 11.195312 58.25 11.144531 L 58.207031 11.105469 C 58.179688 11.074219 58.152344 11.042969 58.125 11.011719 C 58.078125 10.957031 58.027344 10.910156 57.972656 10.863281 C 57.914062 10.816406 57.867188 10.761719 57.816406 10.703125 C 57.773438 10.648438 57.722656 10.605469 57.667969 10.5625 C 57.617188 10.515625 57.570312 10.46875 57.523438 10.417969 L 57.480469 10.378906 C 57.453125 10.347656 57.421875 10.316406 57.398438 10.285156 C 57.351562 10.230469 57.304688 10.1875 57.25 10.144531 C 57.183594 10.082031 57.117188 10.015625 57.054688 9.953125 C 57.015625 9.910156 56.976562 9.871094 56.933594 9.832031 C 56.902344 9.796875 56.867188 9.761719 56.835938 9.726562 C 56.789062 9.671875 56.742188 9.621094 56.683594 9.582031 C 56.636719 9.570312 56.636719 9.570312 56.585938 9.582031 M 59.613281 19.203125 L 59.667969 19.203125 C 59.84375 19.207031 59.972656 19.242188 60.128906 19.328125 C 60.242188 19.398438 60.335938 19.480469 60.398438 19.597656 L 60.433594 19.613281 L 60.429688 19.582031 C 60.429688 19.53125 60.429688 19.484375 60.429688 19.4375 L 60.429688 19.292969 L 60.433594 19.257812 L 60.449219 19.242188 C 60.480469 19.242188 60.515625 19.238281 60.546875 19.238281 L 60.640625 19.238281 C 60.675781 19.238281 60.707031 19.238281 60.738281 19.238281 L 60.855469 19.238281 L 60.902344 19.242188 L 60.917969 19.257812 C 60.917969 19.289062 60.917969 19.320312 60.917969 19.351562 L 60.917969 19.550781 C 60.917969 19.613281 60.917969 19.679688 60.917969 19.742188 L 60.917969 19.863281 C 60.917969 20.003906 60.917969 20.140625 60.917969 20.28125 C 60.917969 20.414062 60.917969 20.542969 60.921875 20.671875 C 60.921875 20.785156 60.921875 20.898438 60.921875 21.007812 C 60.921875 21.074219 60.921875 21.144531 60.921875 21.210938 C 60.921875 21.273438 60.921875 21.335938 60.921875 21.398438 C 60.921875 21.421875 60.921875 21.445312 60.921875 21.46875 C 60.921875 21.691406 60.898438 21.90625 60.796875 22.109375 C 60.707031 22.261719 60.601562 22.375 60.449219 22.46875 C 60.40625 22.488281 60.363281 22.503906 60.320312 22.523438 L 60.289062 22.535156 C 60.117188 22.59375 59.949219 22.601562 59.773438 22.601562 L 59.710938 22.601562 C 59.367188 22.601562 59.050781 22.523438 58.75 22.355469 C 58.703125 22.316406 58.703125 22.316406 58.671875 22.289062 C 58.707031 22.175781 58.75 22.0625 58.800781 21.953125 C 58.875 21.953125 58.914062 21.976562 58.976562 22.011719 C 59.078125 22.066406 59.175781 22.113281 59.285156 22.144531 L 59.332031 22.160156 C 59.460938 22.195312 59.589844 22.199219 59.722656 22.199219 L 59.777344 22.203125 C 59.910156 22.203125 60.039062 22.179688 60.15625 22.109375 C 60.179688 22.097656 60.199219 22.082031 60.222656 22.066406 L 60.269531 22.046875 C 60.289062 22.019531 60.289062 22.019531 60.300781 21.984375 L 60.324219 21.949219 L 60.363281 21.871094 C 60.421875 21.730469 60.421875 21.585938 60.425781 21.4375 C 60.425781 21.394531 60.425781 21.355469 60.429688 21.3125 L 60.429688 21.253906 C 60.433594 21.210938 60.433594 21.210938 60.449219 21.160156 L 60.414062 21.160156 L 60.40625 21.203125 C 60.371094 21.289062 60.320312 21.34375 60.25 21.402344 C 60.167969 21.457031 60.085938 21.511719 59.996094 21.546875 L 59.960938 21.5625 C 59.796875 21.621094 59.605469 21.625 59.433594 21.601562 C 59.226562 21.5625 59.058594 21.488281 58.898438 21.355469 C 58.742188 21.210938 58.660156 21.035156 58.589844 20.839844 L 58.574219 20.792969 C 58.554688 20.734375 58.546875 20.675781 58.539062 20.617188 L 58.535156 20.582031 C 58.503906 20.296875 58.546875 20.035156 58.660156 19.773438 C 58.734375 19.621094 58.863281 19.476562 59.007812 19.375 C 59.203125 19.257812 59.386719 19.199219 59.613281 19.203125 M 54.71875 19.234375 C 54.746094 19.246094 54.777344 19.261719 54.808594 19.273438 L 54.851562 19.292969 C 55.007812 19.367188 55.140625 19.488281 55.242188 19.625 C 55.363281 19.816406 55.433594 20.035156 55.453125 20.257812 C 55.464844 20.585938 55.441406 20.894531 55.300781 21.195312 C 55.214844 21.347656 55.085938 21.492188 54.9375 21.585938 C 54.753906 21.6875 54.558594 21.71875 54.351562 21.714844 C 54.15625 21.707031 53.988281 21.648438 53.820312 21.546875 C 53.769531 21.507812 53.722656 21.464844 53.675781 21.417969 L 53.597656 21.339844 L 53.597656 21.382812 C 53.597656 21.527344 53.597656 21.667969 53.597656 21.8125 C 53.597656 21.882812 53.597656 21.957031 53.597656 22.03125 C 53.597656 22.101562 53.597656 22.171875 53.597656 22.242188 C 53.597656 22.269531 53.597656 22.296875 53.597656 22.324219 C 53.597656 22.359375 53.597656 22.398438 53.597656 22.433594 L 53.597656 22.46875 C 53.597656 22.496094 53.597656 22.523438 53.597656 22.546875 L 53.578125 22.566406 C 53.546875 22.566406 53.511719 22.566406 53.476562 22.566406 L 53.378906 22.566406 C 53.347656 22.566406 53.3125 22.566406 53.28125 22.566406 L 53.15625 22.566406 C 53.109375 22.566406 53.109375 22.566406 53.078125 22.546875 L 53.078125 19.257812 C 53.125 19.234375 53.160156 19.238281 53.210938 19.238281 L 53.519531 19.238281 L 53.5625 19.242188 L 53.578125 19.257812 C 53.582031 19.285156 53.582031 19.308594 53.582031 19.332031 L 53.582031 19.476562 C 53.582031 19.515625 53.582031 19.558594 53.578125 19.597656 C 53.632812 19.542969 53.632812 19.542969 53.6875 19.488281 C 53.800781 19.367188 53.933594 19.289062 54.089844 19.238281 C 54.28125 19.179688 54.527344 19.179688 54.71875 19.234375 " fill-opacity="1" fill-rule="nonzero"/><path fill="#2c4002" d="M 56.632812 6.160156 C 56.667969 6.164062 56.667969 6.164062 56.699219 6.175781 C 56.726562 6.199219 56.726562 6.199219 56.746094 6.226562 L 56.746094 6.257812 L 56.773438 6.269531 C 56.824219 6.296875 56.863281 6.335938 56.90625 6.378906 L 56.929688 6.402344 C 56.949219 6.425781 56.96875 6.445312 56.988281 6.46875 L 56.988281 6.5 L 57.019531 6.511719 C 57.0625 6.539062 57.089844 6.566406 57.121094 6.609375 C 57.167969 6.660156 57.214844 6.707031 57.265625 6.753906 C 57.328125 6.804688 57.382812 6.855469 57.425781 6.917969 L 57.425781 6.953125 L 57.457031 6.953125 L 57.457031 6.984375 L 57.488281 6.996094 L 57.523438 7.015625 C 57.535156 7.039062 57.542969 7.058594 57.554688 7.082031 L 57.605469 7.097656 L 57.605469 7.128906 L 57.628906 7.140625 C 57.683594 7.171875 57.726562 7.214844 57.769531 7.257812 L 57.796875 7.285156 C 57.820312 7.308594 57.839844 7.332031 57.863281 7.355469 L 57.863281 7.386719 L 57.890625 7.398438 C 57.933594 7.421875 57.960938 7.449219 57.992188 7.484375 L 57.992188 7.515625 L 58.023438 7.527344 L 58.054688 7.546875 L 58.089844 7.613281 C 58.109375 7.625 58.132812 7.632812 58.152344 7.644531 L 58.167969 7.695312 L 58.203125 7.710938 L 58.234375 7.726562 L 58.25 7.773438 L 58.28125 7.789062 L 58.316406 7.804688 L 58.332031 7.855469 L 58.359375 7.867188 C 58.414062 7.894531 58.453125 7.941406 58.496094 7.984375 L 58.523438 8.011719 C 58.546875 8.035156 58.566406 8.058594 58.589844 8.082031 L 58.589844 8.113281 L 58.636719 8.128906 L 58.636719 8.160156 L 58.667969 8.175781 C 58.703125 8.195312 58.726562 8.210938 58.75 8.242188 L 58.75 8.273438 L 58.78125 8.289062 L 58.816406 8.304688 L 58.832031 8.355469 C 58.863281 8.375 58.863281 8.375 58.898438 8.386719 L 58.898438 8.417969 L 58.925781 8.429688 L 58.960938 8.453125 L 58.992188 8.515625 C 59.027344 8.535156 59.027344 8.535156 59.058594 8.546875 L 59.058594 8.582031 L 59.085938 8.59375 C 59.121094 8.613281 59.144531 8.628906 59.171875 8.660156 L 59.171875 8.695312 L 59.199219 8.703125 C 59.246094 8.730469 59.28125 8.765625 59.316406 8.804688 L 59.347656 8.871094 L 59.398438 8.886719 C 59.453125 8.941406 59.507812 9 59.558594 9.054688 C 59.6875 9.199219 59.820312 9.335938 59.964844 9.457031 C 60.035156 9.519531 60.089844 9.585938 60.140625 9.660156 C 59.914062 9.914062 59.914062 9.914062 59.832031 9.96875 C 59.796875 9.96875 59.796875 9.96875 59.753906 9.953125 C 59.71875 9.921875 59.6875 9.894531 59.65625 9.863281 L 59.632812 9.835938 C 59.589844 9.792969 59.546875 9.746094 59.507812 9.695312 C 59.4375 9.621094 59.367188 9.546875 59.292969 9.476562 L 59.253906 9.433594 C 59.183594 9.367188 59.113281 9.296875 59.039062 9.234375 C 58.949219 9.160156 58.871094 9.074219 58.800781 8.984375 C 58.753906 8.9375 58.710938 8.894531 58.660156 8.855469 C 58.613281 8.816406 58.578125 8.773438 58.542969 8.726562 L 58.503906 8.695312 C 58.464844 8.664062 58.4375 8.636719 58.40625 8.597656 C 58.359375 8.546875 58.3125 8.5 58.257812 8.457031 C 58.234375 8.433594 58.207031 8.414062 58.1875 8.386719 L 58.1875 8.355469 L 58.152344 8.355469 C 58.132812 8.332031 58.113281 8.308594 58.09375 8.28125 C 58.070312 8.253906 58.070312 8.253906 58.023438 8.226562 L 58.023438 8.195312 L 57.992188 8.195312 C 57.96875 8.167969 57.949219 8.140625 57.925781 8.113281 L 57.890625 8.078125 L 57.863281 8.046875 L 57.863281 8.015625 L 57.835938 8.003906 C 57.785156 7.976562 57.753906 7.941406 57.71875 7.902344 C 57.691406 7.875 57.664062 7.847656 57.636719 7.824219 L 57.578125 7.765625 L 57.546875 7.730469 L 57.144531 7.332031 L 57.113281 7.300781 C 57.089844 7.277344 57.066406 7.253906 57.042969 7.226562 C 57.003906 7.191406 57.003906 7.191406 56.960938 7.15625 C 56.898438 7.105469 56.84375 7.046875 56.796875 6.984375 L 56.78125 6.933594 C 56.75 6.917969 56.75 6.917969 56.714844 6.902344 L 56.683594 6.871094 C 56.640625 6.859375 56.640625 6.859375 56.601562 6.855469 L 56.589844 6.882812 C 56.5625 6.929688 56.527344 6.96875 56.484375 7.007812 L 56.460938 7.03125 C 56.445312 7.046875 56.425781 7.066406 56.410156 7.082031 C 56.382812 7.109375 56.355469 7.136719 56.328125 7.160156 C 56.257812 7.234375 56.1875 7.300781 56.113281 7.367188 C 56.070312 7.402344 56.035156 7.4375 56.003906 7.476562 C 55.929688 7.5625 55.851562 7.640625 55.773438 7.71875 L 55.722656 7.765625 C 55.675781 7.8125 55.632812 7.855469 55.585938 7.902344 C 55.539062 7.949219 55.492188 7.996094 55.445312 8.042969 C 55.367188 8.121094 55.289062 8.199219 55.210938 8.277344 C 55.117188 8.367188 55.027344 8.460938 54.9375 8.550781 C 54.859375 8.628906 54.78125 8.707031 54.703125 8.785156 C 54.65625 8.832031 54.609375 8.878906 54.5625 8.925781 C 54.519531 8.96875 54.472656 9.011719 54.429688 9.058594 C 54.414062 9.074219 54.398438 9.089844 54.382812 9.105469 C 54.359375 9.125 54.335938 9.148438 54.316406 9.171875 L 54.277344 9.207031 C 54.242188 9.242188 54.242188 9.242188 54.199219 9.277344 C 54.160156 9.304688 54.132812 9.339844 54.105469 9.378906 C 54.078125 9.40625 54.054688 9.429688 54.023438 9.453125 C 53.9375 9.527344 53.859375 9.605469 53.777344 9.6875 L 53.734375 9.734375 C 53.707031 9.761719 53.679688 9.789062 53.648438 9.816406 C 53.625 9.84375 53.597656 9.871094 53.570312 9.898438 C 53.539062 9.925781 53.511719 9.957031 53.488281 9.988281 L 53.449219 10.03125 L 53.417969 10.03125 L 53.40625 10.0625 L 53.386719 10.097656 C 53.363281 10.109375 53.34375 10.117188 53.320312 10.128906 L 53.304688 10.175781 L 53.273438 10.175781 L 53.257812 10.207031 L 53.242188 10.242188 L 53.191406 10.257812 C 53.179688 10.28125 53.171875 10.300781 53.160156 10.324219 C 53.132812 10.351562 53.105469 10.378906 53.078125 10.40625 L 53.035156 10.449219 L 52.996094 10.484375 L 52.964844 10.484375 L 52.953125 10.511719 C 52.929688 10.550781 52.90625 10.582031 52.875 10.617188 L 52.847656 10.652344 L 52.820312 10.675781 L 52.789062 10.675781 L 52.773438 10.726562 C 52.746094 10.746094 52.71875 10.769531 52.691406 10.789062 C 52.640625 10.835938 52.597656 10.886719 52.550781 10.9375 C 52.4375 11.066406 52.3125 11.1875 52.1875 11.308594 L 52.113281 11.382812 C 52.054688 11.445312 51.992188 11.503906 51.929688 11.566406 C 51.875 11.539062 51.839844 11.507812 51.796875 11.464844 L 51.675781 11.34375 C 51.644531 11.308594 51.609375 11.277344 51.574219 11.242188 C 51.601562 11.175781 51.652344 11.128906 51.703125 11.082031 L 51.730469 11.050781 C 51.761719 11.019531 51.792969 10.988281 51.824219 10.957031 L 51.890625 10.890625 C 51.9375 10.84375 51.984375 10.796875 52.03125 10.75 C 52.089844 10.691406 52.148438 10.632812 52.210938 10.574219 C 52.253906 10.527344 52.300781 10.484375 52.347656 10.4375 L 52.410156 10.371094 C 52.613281 10.171875 52.613281 10.171875 52.710938 10.085938 C 52.757812 10.050781 52.796875 10.007812 52.839844 9.964844 L 52.867188 9.941406 C 52.886719 9.921875 52.902344 9.902344 52.921875 9.882812 C 52.949219 9.855469 52.980469 9.828125 53.007812 9.800781 L 53.085938 9.722656 C 53.128906 9.679688 53.171875 9.632812 53.210938 9.585938 C 53.285156 9.5 53.367188 9.421875 53.449219 9.339844 C 53.476562 9.3125 53.503906 9.28125 53.535156 9.253906 C 53.597656 9.191406 53.660156 9.132812 53.71875 9.070312 C 53.792969 9 53.863281 8.925781 53.9375 8.855469 C 53.964844 8.828125 53.992188 8.796875 54.023438 8.769531 L 54.097656 8.695312 C 54.144531 8.648438 54.1875 8.601562 54.226562 8.546875 C 54.261719 8.511719 54.261719 8.511719 54.289062 8.484375 L 54.324219 8.484375 L 54.335938 8.457031 C 54.359375 8.410156 54.394531 8.386719 54.4375 8.355469 C 54.492188 8.300781 54.542969 8.242188 54.59375 8.183594 L 54.613281 8.160156 L 54.644531 8.160156 L 54.644531 8.128906 C 54.667969 8.109375 54.691406 8.089844 54.714844 8.074219 C 54.753906 8.039062 54.789062 8.003906 54.824219 7.96875 L 54.949219 7.84375 L 54.972656 7.816406 C 55.160156 7.628906 55.347656 7.441406 55.535156 7.253906 C 55.644531 7.144531 55.753906 7.035156 55.859375 6.925781 C 55.953125 6.832031 56.050781 6.738281 56.144531 6.640625 C 56.195312 6.59375 56.246094 6.542969 56.292969 6.492188 C 56.339844 6.445312 56.386719 6.398438 56.4375 6.351562 C 56.453125 6.332031 56.46875 6.316406 56.488281 6.296875 C 56.511719 6.273438 56.535156 6.25 56.558594 6.226562 L 56.597656 6.1875 Z M 56.632812 6.160156 " fill-opacity="1" fill-rule="nonzero"/><path fill="#fea45b" d="M 56.617188 7.53125 C 56.648438 7.53125 56.648438 7.53125 56.683594 7.546875 C 56.71875 7.582031 56.71875 7.582031 56.761719 7.628906 C 56.828125 7.707031 56.902344 7.785156 56.972656 7.859375 L 57.003906 7.886719 C 57.039062 7.921875 57.070312 7.953125 57.105469 7.988281 L 57.175781 8.058594 C 57.242188 8.125 57.304688 8.1875 57.371094 8.253906 C 57.4375 8.320312 57.507812 8.386719 57.574219 8.457031 C 57.6875 8.570312 57.800781 8.683594 57.917969 8.796875 C 58.046875 8.929688 58.179688 9.058594 58.3125 9.191406 C 58.425781 9.304688 58.539062 9.417969 58.652344 9.53125 L 58.855469 9.734375 C 58.917969 9.796875 58.980469 9.859375 59.042969 9.921875 C 59.066406 9.945312 59.089844 9.96875 59.113281 9.992188 C 59.261719 10.144531 59.261719 10.144531 59.421875 10.285156 C 59.640625 10.46875 59.855469 10.675781 60.039062 10.894531 C 60.058594 10.921875 60.058594 10.921875 60.085938 10.945312 L 60.109375 10.96875 L 60.109375 11 L 60.140625 11 C 60.121094 11.074219 60.078125 11.121094 60.027344 11.175781 C 59.996094 11.210938 59.996094 11.210938 59.964844 11.246094 L 59.9375 11.285156 L 59.914062 11.316406 L 59.882812 11.339844 C 59.835938 11.335938 59.835938 11.335938 59.785156 11.324219 C 59.742188 11.289062 59.742188 11.289062 59.695312 11.246094 L 59.671875 11.222656 C 59.644531 11.195312 59.617188 11.171875 59.589844 11.144531 L 59.539062 11.09375 C 59.496094 11.054688 59.453125 11.011719 59.414062 10.96875 C 59.386719 10.945312 59.359375 10.917969 59.335938 10.890625 C 59.242188 10.800781 59.15625 10.707031 59.074219 10.605469 C 59.023438 10.539062 58.964844 10.480469 58.902344 10.421875 L 58.871094 10.390625 C 58.804688 10.324219 58.738281 10.265625 58.667969 10.203125 C 58.617188 10.160156 58.570312 10.113281 58.523438 10.066406 L 58.492188 10.035156 C 58.445312 9.988281 58.398438 9.9375 58.355469 9.886719 C 58.257812 9.769531 58.136719 9.667969 58.019531 9.566406 C 57.914062 9.472656 57.8125 9.371094 57.710938 9.269531 L 57.660156 9.21875 C 57.625 9.183594 57.585938 9.148438 57.550781 9.113281 C 57.507812 9.066406 57.460938 9.023438 57.417969 8.976562 C 57.378906 8.941406 57.34375 8.90625 57.308594 8.871094 C 57.292969 8.855469 57.277344 8.839844 57.261719 8.820312 C 57.164062 8.726562 57.074219 8.628906 56.988281 8.523438 C 56.9375 8.457031 56.875 8.394531 56.816406 8.335938 L 56.78125 8.296875 L 56.746094 8.261719 C 56.734375 8.25 56.726562 8.242188 56.714844 8.230469 L 56.683594 8.210938 C 56.644531 8.210938 56.644531 8.210938 56.601562 8.226562 C 56.566406 8.25 56.566406 8.25 56.535156 8.28125 L 56.5 8.320312 L 56.414062 8.40625 C 56.375 8.445312 56.332031 8.484375 56.292969 8.527344 C 56.25 8.570312 56.207031 8.613281 56.164062 8.65625 C 56.078125 8.742188 55.992188 8.824219 55.90625 8.910156 C 55.808594 9.011719 55.710938 9.109375 55.609375 9.207031 C 55.433594 9.382812 55.257812 9.5625 55.082031 9.738281 C 54.910156 9.910156 54.738281 10.082031 54.566406 10.25 L 54.535156 10.285156 L 54.503906 10.316406 C 54.308594 10.511719 54.113281 10.707031 53.917969 10.902344 C 53.847656 10.96875 53.777344 11.039062 53.710938 11.105469 C 53.625 11.191406 53.539062 11.277344 53.457031 11.359375 C 53.414062 11.402344 53.371094 11.445312 53.328125 11.488281 C 53.28125 11.535156 53.234375 11.582031 53.1875 11.628906 L 53.148438 11.667969 C 53.082031 11.734375 53.027344 11.792969 52.980469 11.871094 C 52.929688 11.929688 52.875 11.984375 52.820312 12.039062 C 52.796875 12.0625 52.769531 12.089844 52.746094 12.117188 C 52.726562 12.132812 52.710938 12.148438 52.695312 12.164062 L 52.652344 12.210938 L 52.609375 12.242188 C 52.574219 12.242188 52.574219 12.242188 52.546875 12.226562 C 52.515625 12.199219 52.515625 12.199219 52.480469 12.164062 C 52.445312 12.128906 52.414062 12.09375 52.371094 12.0625 C 52.332031 12.027344 52.304688 11.992188 52.269531 11.953125 L 52.238281 11.933594 L 52.238281 11.902344 L 52.269531 11.878906 L 52.304688 11.855469 L 52.304688 11.804688 C 52.339844 11.777344 52.339844 11.777344 52.382812 11.757812 L 52.417969 11.757812 L 52.433594 11.710938 C 52.453125 11.6875 52.453125 11.6875 52.484375 11.664062 C 52.546875 11.609375 52.609375 11.550781 52.667969 11.492188 L 52.695312 11.46875 C 52.738281 11.425781 52.777344 11.378906 52.816406 11.332031 C 52.910156 11.230469 53.007812 11.132812 53.105469 11.035156 L 53.171875 10.96875 C 53.21875 10.925781 53.261719 10.878906 53.308594 10.835938 C 53.363281 10.777344 53.421875 10.71875 53.480469 10.660156 C 53.523438 10.617188 53.570312 10.574219 53.613281 10.527344 C 53.636719 10.507812 53.65625 10.484375 53.679688 10.464844 C 53.871094 10.269531 53.871094 10.269531 53.972656 10.183594 C 54.011719 10.152344 54.046875 10.117188 54.082031 10.082031 L 54.125 10.039062 C 54.148438 10.015625 54.148438 10.015625 54.171875 9.992188 L 54.296875 9.867188 C 54.328125 9.832031 54.359375 9.796875 54.390625 9.761719 C 54.445312 9.699219 54.503906 9.640625 54.5625 9.582031 L 54.597656 9.546875 C 54.617188 9.527344 54.640625 9.503906 54.664062 9.480469 C 54.699219 9.445312 54.738281 9.410156 54.773438 9.375 C 54.863281 9.285156 54.953125 9.195312 55.039062 9.105469 C 55.117188 9.03125 55.191406 8.957031 55.269531 8.878906 C 55.304688 8.84375 55.339844 8.808594 55.375 8.773438 L 55.46875 8.679688 C 55.527344 8.621094 55.585938 8.558594 55.640625 8.496094 C 55.675781 8.457031 55.710938 8.417969 55.75 8.378906 L 55.824219 8.304688 L 55.859375 8.304688 L 55.859375 8.273438 C 55.882812 8.25 55.882812 8.25 55.917969 8.222656 C 55.96875 8.175781 56.011719 8.132812 56.050781 8.082031 C 56.070312 8.0625 56.089844 8.042969 56.105469 8.027344 C 56.140625 7.992188 56.171875 7.960938 56.207031 7.925781 L 56.292969 7.839844 C 56.304688 7.828125 56.320312 7.8125 56.335938 7.796875 C 56.40625 7.726562 56.480469 7.652344 56.558594 7.585938 C 56.582031 7.570312 56.597656 7.550781 56.617188 7.53125 " fill-opacity="1" fill-rule="nonzero"/><path fill="#08869d" d="M 63.148438 19.273438 C 63.316406 19.339844 63.484375 19.457031 63.597656 19.597656 C 63.730469 19.773438 63.8125 19.960938 63.859375 20.175781 C 63.863281 20.253906 63.863281 20.332031 63.863281 20.410156 C 63.863281 20.445312 63.863281 20.484375 63.863281 20.519531 C 63.863281 20.757812 63.816406 20.96875 63.695312 21.175781 C 63.65625 21.238281 63.613281 21.296875 63.566406 21.355469 C 63.558594 21.363281 63.550781 21.375 63.542969 21.386719 C 63.429688 21.511719 63.269531 21.597656 63.109375 21.648438 L 63.066406 21.660156 L 63.019531 21.675781 C 62.816406 21.734375 62.585938 21.730469 62.378906 21.691406 C 62.148438 21.632812 61.972656 21.539062 61.800781 21.371094 C 61.726562 21.296875 61.675781 21.222656 61.628906 21.128906 L 61.605469 21.085938 C 61.550781 20.976562 61.523438 20.863281 61.5 20.742188 L 61.488281 20.699219 C 61.453125 20.4375 61.476562 20.171875 61.5625 19.921875 C 61.578125 19.886719 61.59375 19.855469 61.613281 19.824219 L 61.628906 19.789062 C 61.714844 19.617188 61.84375 19.476562 62 19.371094 C 62.097656 19.3125 62.199219 19.269531 62.304688 19.242188 L 62.335938 19.234375 C 62.589844 19.167969 62.898438 19.183594 63.148438 19.273438 M 52.003906 19.3125 C 52.121094 19.375 52.210938 19.460938 52.28125 19.574219 C 52.417969 19.828125 52.40625 20.113281 52.402344 20.394531 L 52.402344 20.503906 C 52.402344 20.578125 52.402344 20.652344 52.402344 20.726562 C 52.402344 20.824219 52.402344 20.921875 52.402344 21.019531 C 52.402344 21.09375 52.402344 21.167969 52.402344 21.242188 L 52.402344 21.347656 C 52.402344 21.398438 52.402344 21.449219 52.402344 21.496094 L 52.402344 21.542969 C 52.402344 21.578125 52.402344 21.609375 52.398438 21.644531 L 52.382812 21.660156 C 52.246094 21.679688 52.101562 21.6875 51.964844 21.675781 L 51.914062 21.644531 C 51.910156 21.613281 51.910156 21.613281 51.910156 21.578125 L 51.910156 21.539062 C 51.910156 21.527344 51.910156 21.511719 51.914062 21.496094 L 51.914062 21.457031 C 51.914062 21.421875 51.914062 21.390625 51.914062 21.355469 C 51.875 21.390625 51.84375 21.429688 51.808594 21.472656 C 51.734375 21.558594 51.640625 21.617188 51.535156 21.664062 C 51.363281 21.722656 51.167969 21.730469 50.988281 21.699219 C 50.820312 21.664062 50.679688 21.597656 50.546875 21.488281 C 50.449219 21.398438 50.378906 21.289062 50.332031 21.167969 C 50.296875 21.03125 50.296875 20.871094 50.335938 20.734375 C 50.367188 20.648438 50.40625 20.570312 50.472656 20.503906 C 50.636719 20.375 50.824219 20.316406 51.027344 20.285156 C 51.109375 20.273438 51.1875 20.265625 51.269531 20.257812 L 51.324219 20.253906 C 51.523438 20.238281 51.71875 20.242188 51.914062 20.242188 C 51.910156 19.988281 51.910156 19.988281 51.828125 19.753906 C 51.792969 19.707031 51.757812 19.679688 51.699219 19.648438 C 51.511719 19.589844 51.339844 19.582031 51.144531 19.621094 C 50.976562 19.660156 50.808594 19.722656 50.65625 19.808594 C 50.605469 19.839844 50.605469 19.839844 50.558594 19.839844 C 50.535156 19.792969 50.515625 19.746094 50.492188 19.699219 L 50.472656 19.660156 C 50.449219 19.605469 50.429688 19.5625 50.425781 19.503906 C 50.445312 19.46875 50.445312 19.46875 50.496094 19.433594 C 50.515625 19.421875 50.539062 19.414062 50.558594 19.402344 L 50.59375 19.386719 C 51.023438 19.1875 51.5625 19.109375 52.003906 19.3125 M 57.554688 19.292969 C 57.675781 19.347656 57.777344 19.429688 57.855469 19.542969 C 57.980469 19.757812 57.996094 19.996094 57.996094 20.238281 C 57.996094 20.292969 57.996094 20.34375 57.996094 20.398438 L 57.996094 20.507812 C 57.996094 20.601562 57.996094 20.699219 57.992188 20.792969 C 57.992188 20.890625 57.992188 20.988281 57.992188 21.085938 C 57.992188 21.277344 57.992188 21.46875 57.992188 21.660156 C 57.9375 21.664062 57.882812 21.667969 57.828125 21.671875 L 57.785156 21.671875 L 57.738281 21.675781 L 57.699219 21.679688 C 57.640625 21.675781 57.582031 21.667969 57.523438 21.660156 L 57.523438 21.304688 L 57.492188 21.304688 L 57.484375 21.335938 C 57.460938 21.414062 57.402344 21.472656 57.347656 21.53125 C 57.242188 21.621094 57.117188 21.667969 56.984375 21.703125 C 56.78125 21.734375 56.582031 21.710938 56.390625 21.644531 C 56.25 21.585938 56.128906 21.5 56.035156 21.375 C 55.960938 21.265625 55.914062 21.167969 55.902344 21.035156 C 55.894531 20.890625 55.90625 20.761719 55.972656 20.628906 C 56.015625 20.546875 56.074219 20.492188 56.148438 20.441406 C 56.246094 20.382812 56.347656 20.347656 56.457031 20.324219 L 56.511719 20.308594 C 56.835938 20.234375 57.175781 20.238281 57.507812 20.242188 C 57.507812 20.011719 57.507812 20.011719 57.441406 19.789062 C 57.402344 19.726562 57.359375 19.683594 57.292969 19.648438 C 57.113281 19.589844 56.949219 19.582031 56.761719 19.613281 C 56.664062 19.636719 56.570312 19.664062 56.472656 19.699219 L 56.433594 19.714844 C 56.359375 19.742188 56.292969 19.777344 56.226562 19.824219 C 56.199219 19.839844 56.199219 19.839844 56.148438 19.839844 L 56.003906 19.5 C 56.441406 19.210938 57.054688 19.09375 57.554688 19.292969 M 47.4375 18.175781 L 50.445312 18.175781 L 50.445312 18.597656 L 50.429688 18.613281 L 49.199219 18.613281 L 49.199219 21.660156 C 48.726562 21.683594 48.726562 21.683594 48.683594 21.660156 L 48.683594 18.613281 L 47.453125 18.613281 L 47.4375 18.597656 Z M 47.4375 18.175781 " fill-opacity="1" fill-rule="nonzero"/><path fill="#fefcf7" d="M 62.953125 19.640625 C 63.0625 19.695312 63.152344 19.765625 63.222656 19.867188 C 63.324219 20.039062 63.355469 20.214844 63.359375 20.414062 C 63.363281 20.546875 63.359375 20.679688 63.324219 20.804688 L 63.3125 20.851562 C 63.273438 20.96875 63.214844 21.066406 63.128906 21.160156 C 63.050781 21.234375 62.960938 21.289062 62.855469 21.316406 C 62.707031 21.335938 62.550781 21.335938 62.410156 21.292969 C 62.339844 21.261719 62.28125 21.214844 62.226562 21.160156 L 62.195312 21.132812 C 62.097656 21.03125 62.054688 20.910156 62.011719 20.777344 C 61.957031 20.550781 61.964844 20.304688 62.03125 20.082031 C 62.078125 19.9375 62.144531 19.832031 62.253906 19.730469 C 62.324219 19.671875 62.398438 19.640625 62.484375 19.613281 L 62.542969 19.589844 C 62.667969 19.5625 62.835938 19.59375 62.953125 19.640625 M 54.566406 19.648438 C 54.605469 19.671875 54.640625 19.695312 54.679688 19.726562 C 54.6875 19.734375 54.699219 19.742188 54.710938 19.75 C 54.792969 19.824219 54.851562 19.925781 54.894531 20.03125 C 54.9375 20.167969 54.941406 20.3125 54.941406 20.457031 L 54.941406 20.511719 C 54.9375 20.703125 54.910156 20.867188 54.820312 21.039062 C 54.757812 21.136719 54.683594 21.203125 54.578125 21.257812 C 54.441406 21.320312 54.316406 21.335938 54.164062 21.328125 C 54.054688 21.316406 53.960938 21.273438 53.875 21.210938 C 53.765625 21.117188 53.695312 21.019531 53.640625 20.886719 C 53.5625 20.660156 53.554688 20.410156 53.601562 20.175781 C 53.636719 20.019531 53.695312 19.886719 53.804688 19.765625 C 53.898438 19.675781 54.023438 19.617188 54.148438 19.585938 C 54.285156 19.566406 54.4375 19.597656 54.566406 19.648438 M 59.851562 19.597656 L 59.886719 19.601562 C 60.003906 19.625 60.09375 19.679688 60.191406 19.742188 C 60.273438 19.820312 60.332031 19.917969 60.371094 20.023438 C 60.4375 20.226562 60.449219 20.425781 60.414062 20.640625 C 60.378906 20.789062 60.324219 20.914062 60.226562 21.03125 C 60.144531 21.117188 60.050781 21.15625 59.941406 21.195312 C 59.875 21.210938 59.8125 21.214844 59.742188 21.214844 L 59.703125 21.214844 C 59.601562 21.214844 59.507812 21.195312 59.414062 21.160156 L 59.414062 21.128906 L 59.378906 21.117188 C 59.304688 21.082031 59.257812 21.042969 59.207031 20.980469 C 59.117188 20.847656 59.066406 20.703125 59.042969 20.546875 C 59.03125 20.339844 59.042969 20.140625 59.132812 19.945312 C 59.191406 19.839844 59.269531 19.757812 59.367188 19.683594 C 59.519531 19.59375 59.675781 19.566406 59.851562 19.597656 M 57.523438 20.566406 C 57.527344 20.75 57.511719 20.898438 57.421875 21.066406 C 57.363281 21.164062 57.285156 21.242188 57.183594 21.296875 C 57.054688 21.351562 56.933594 21.367188 56.796875 21.355469 C 56.707031 21.339844 56.628906 21.328125 56.554688 21.269531 L 56.519531 21.226562 L 56.496094 21.195312 C 56.460938 21.152344 56.429688 21.109375 56.410156 21.058594 L 56.40625 21.015625 L 56.40625 20.980469 C 56.402344 20.910156 56.40625 20.859375 56.425781 20.792969 C 56.460938 20.734375 56.496094 20.695312 56.554688 20.660156 C 56.75 20.570312 56.960938 20.558594 57.175781 20.554688 C 57.210938 20.554688 57.246094 20.550781 57.277344 20.550781 C 57.464844 20.546875 57.464844 20.546875 57.523438 20.566406 M 51.484375 20.5625 L 51.523438 20.5625 C 51.5625 20.5625 51.601562 20.5625 51.640625 20.5625 C 51.667969 20.5625 51.691406 20.5625 51.71875 20.5625 C 51.785156 20.5625 51.851562 20.5625 51.914062 20.566406 C 51.914062 20.605469 51.917969 20.644531 51.917969 20.6875 L 51.917969 20.722656 C 51.917969 20.832031 51.898438 20.929688 51.851562 21.03125 C 51.792969 21.128906 51.714844 21.210938 51.625 21.273438 C 51.503906 21.339844 51.394531 21.359375 51.257812 21.359375 C 51.164062 21.351562 51.078125 21.328125 50.992188 21.289062 C 50.929688 21.246094 50.886719 21.195312 50.847656 21.132812 C 50.808594 21.050781 50.808594 20.96875 50.8125 20.882812 C 50.816406 20.84375 50.824219 20.8125 50.84375 20.773438 C 50.882812 20.722656 50.921875 20.679688 50.976562 20.644531 C 51.019531 20.628906 51.0625 20.617188 51.105469 20.609375 L 51.140625 20.601562 C 51.253906 20.574219 51.367188 20.5625 51.484375 20.5625 " fill-opacity="1" fill-rule="nonzero"/><path fill="#394024" d="M 56.539062 6.886719 L 56.570312 6.886719 C 56.542969 6.949219 56.507812 6.984375 56.460938 7.03125 L 56.4375 7.054688 C 56.421875 7.070312 56.40625 7.085938 56.390625 7.101562 C 56.367188 7.125 56.339844 7.148438 56.316406 7.171875 C 56.25 7.238281 56.183594 7.304688 56.113281 7.367188 C 56.074219 7.398438 56.035156 7.4375 56.003906 7.476562 C 55.929688 7.5625 55.851562 7.640625 55.773438 7.71875 L 55.722656 7.765625 C 55.675781 7.8125 55.632812 7.855469 55.585938 7.902344 C 55.539062 7.949219 55.492188 7.996094 55.445312 8.042969 C 55.367188 8.121094 55.289062 8.199219 55.210938 8.277344 C 55.117188 8.367188 55.027344 8.460938 54.9375 8.550781 C 54.859375 8.628906 54.78125 8.707031 54.703125 8.785156 C 54.65625 8.832031 54.609375 8.878906 54.5625 8.925781 C 54.519531 8.96875 54.472656 9.011719 54.429688 9.058594 C 54.414062 9.074219 54.398438 9.089844 54.382812 9.105469 C 54.359375 9.125 54.335938 9.148438 54.316406 9.171875 L 54.277344 9.207031 C 54.242188 9.242188 54.203125 9.273438 54.160156 9.304688 C 54.136719 9.332031 54.136719 9.332031 54.117188 9.359375 L 54.082031 9.402344 L 54.046875 9.402344 C 54.054688 9.367188 54.054688 9.367188 54.066406 9.324219 C 54.089844 9.289062 54.089844 9.289062 54.121094 9.257812 L 54.191406 9.1875 L 54.230469 9.152344 C 54.292969 9.089844 54.292969 9.089844 54.324219 9.066406 L 54.355469 9.066406 L 54.371094 9.015625 C 54.394531 8.988281 54.394531 8.988281 54.421875 8.96875 L 54.453125 8.96875 L 54.464844 8.9375 C 54.484375 8.902344 54.507812 8.878906 54.539062 8.847656 L 54.570312 8.816406 L 54.640625 8.753906 C 54.703125 8.695312 54.703125 8.695312 54.726562 8.675781 L 54.757812 8.675781 L 54.757812 8.644531 C 54.78125 8.625 54.78125 8.625 54.8125 8.601562 C 54.902344 8.519531 54.988281 8.433594 55.074219 8.347656 C 55.097656 8.324219 55.121094 8.300781 55.144531 8.277344 C 55.179688 8.242188 55.179688 8.242188 55.207031 8.203125 L 55.226562 8.175781 L 55.261719 8.175781 L 55.277344 8.128906 C 55.308594 8.09375 55.308594 8.09375 55.339844 8.066406 L 55.375 8.066406 L 55.390625 8.015625 C 55.414062 7.996094 55.4375 7.976562 55.460938 7.957031 C 55.492188 7.933594 55.492188 7.933594 55.523438 7.890625 L 55.550781 7.855469 L 55.582031 7.855469 L 55.59375 7.828125 C 55.621094 7.78125 55.65625 7.746094 55.695312 7.710938 L 55.730469 7.710938 L 55.742188 7.683594 C 55.765625 7.636719 55.796875 7.609375 55.832031 7.570312 L 55.96875 7.433594 C 56.003906 7.398438 56.039062 7.367188 56.070312 7.332031 C 56.117188 7.289062 56.160156 7.246094 56.203125 7.203125 C 56.234375 7.167969 56.269531 7.136719 56.300781 7.101562 L 56.351562 7.054688 C 56.371094 7.03125 56.394531 7.011719 56.417969 6.988281 L 56.457031 6.949219 C 56.488281 6.917969 56.488281 6.917969 56.539062 6.886719 " fill-opacity="1" fill-rule="nonzero"/><path fill="#384023" d="M 52.773438 10.644531 L 52.820312 10.644531 L 52.820312 10.675781 L 52.789062 10.675781 L 52.773438 10.726562 C 52.746094 10.746094 52.71875 10.769531 52.691406 10.789062 C 52.640625 10.835938 52.597656 10.886719 52.550781 10.9375 C 52.4375 11.066406 52.3125 11.1875 52.1875 11.308594 L 52.113281 11.382812 C 52.054688 11.445312 51.992188 11.503906 51.929688 11.566406 C 51.875 11.539062 51.839844 11.507812 51.796875 11.464844 L 51.757812 11.429688 L 51.71875 11.386719 L 51.675781 11.347656 L 51.601562 11.273438 L 51.574219 11.242188 L 51.574219 11.210938 L 51.609375 11.210938 L 51.609375 11.242188 L 51.636719 11.253906 C 51.679688 11.277344 51.710938 11.304688 51.746094 11.335938 L 51.78125 11.371094 C 51.824219 11.40625 51.859375 11.445312 51.898438 11.484375 C 51.960938 11.457031 52 11.421875 52.042969 11.375 L 52.066406 11.351562 C 52.085938 11.332031 52.101562 11.316406 52.117188 11.300781 C 52.144531 11.273438 52.171875 11.246094 52.199219 11.21875 C 52.273438 11.140625 52.351562 11.066406 52.425781 10.988281 C 52.472656 10.941406 52.519531 10.894531 52.566406 10.847656 C 52.582031 10.828125 52.601562 10.8125 52.617188 10.792969 C 52.644531 10.769531 52.667969 10.742188 52.691406 10.71875 L 52.734375 10.675781 Z M 52.773438 10.644531 " fill-opacity="1" fill-rule="nonzero"/><path fill="#394024" d="M 57.878906 8.066406 C 57.90625 8.066406 57.90625 8.066406 57.941406 8.082031 C 57.980469 8.113281 57.980469 8.113281 58.019531 8.152344 L 58.0625 8.195312 C 58.078125 8.210938 58.09375 8.226562 58.109375 8.242188 C 58.136719 8.273438 58.167969 8.304688 58.199219 8.335938 L 58.242188 8.378906 C 58.289062 8.425781 58.339844 8.46875 58.390625 8.511719 L 58.410156 8.53125 L 58.410156 8.566406 L 58.460938 8.582031 C 58.496094 8.613281 58.496094 8.613281 58.523438 8.644531 L 58.523438 8.675781 L 58.574219 8.695312 L 58.574219 8.726562 L 58.605469 8.726562 C 58.625 8.75 58.644531 8.773438 58.664062 8.796875 C 58.6875 8.824219 58.6875 8.824219 58.726562 8.851562 C 58.761719 8.882812 58.789062 8.910156 58.816406 8.945312 C 58.90625 9.046875 59.003906 9.144531 59.105469 9.238281 C 59.117188 9.25 59.128906 9.261719 59.140625 9.273438 L 59.140625 9.304688 C 59.09375 9.285156 59.058594 9.265625 59.023438 9.226562 L 58.941406 9.144531 C 58.890625 9.09375 58.84375 9.039062 58.800781 8.984375 C 58.753906 8.9375 58.710938 8.894531 58.660156 8.855469 C 58.613281 8.816406 58.578125 8.773438 58.542969 8.726562 L 58.503906 8.695312 C 58.464844 8.664062 58.4375 8.636719 58.40625 8.597656 C 58.359375 8.546875 58.3125 8.5 58.257812 8.457031 C 58.234375 8.433594 58.207031 8.414062 58.1875 8.386719 L 58.1875 8.355469 L 58.152344 8.355469 C 58.132812 8.332031 58.113281 8.308594 58.09375 8.28125 C 58.070312 8.253906 58.070312 8.253906 58.023438 8.226562 L 58.023438 8.195312 L 57.992188 8.195312 C 57.96875 8.167969 57.949219 8.140625 57.925781 8.113281 C 57.910156 8.097656 57.894531 8.082031 57.878906 8.066406 M 56.8125 6.96875 C 56.890625 7.035156 56.964844 7.101562 57.035156 7.175781 L 57.066406 7.207031 C 57.097656 7.238281 57.132812 7.269531 57.164062 7.300781 C 57.207031 7.34375 57.246094 7.386719 57.289062 7.429688 L 57.371094 7.511719 C 57.398438 7.535156 57.398438 7.535156 57.441406 7.566406 L 57.441406 7.597656 L 57.472656 7.597656 L 57.472656 7.628906 L 57.503906 7.640625 C 57.539062 7.660156 57.5625 7.679688 57.585938 7.710938 L 57.585938 7.742188 L 57.621094 7.742188 C 57.648438 7.769531 57.648438 7.769531 57.679688 7.804688 L 57.710938 7.839844 L 57.734375 7.871094 L 57.734375 7.917969 L 57.144531 7.332031 L 57.113281 7.300781 C 57.097656 7.285156 57.078125 7.265625 57.0625 7.25 C 57.03125 7.214844 56.996094 7.183594 56.957031 7.15625 C 56.902344 7.109375 56.851562 7.058594 56.8125 7 Z M 56.746094 6.257812 C 56.8125 6.285156 56.855469 6.328125 56.90625 6.378906 L 56.929688 6.402344 C 56.949219 6.425781 56.96875 6.445312 56.988281 6.46875 L 56.988281 6.5 L 57.019531 6.515625 L 57.054688 6.53125 L 57.070312 6.566406 L 57.023438 6.566406 L 57.023438 6.53125 L 56.992188 6.519531 C 56.957031 6.5 56.933594 6.480469 56.90625 6.449219 L 56.878906 6.417969 L 56.847656 6.386719 L 56.820312 6.355469 C 56.765625 6.296875 56.765625 6.296875 56.746094 6.273438 Z M 52.886719 10.53125 L 52.933594 10.546875 L 52.851562 10.628906 L 52.804688 10.613281 Z M 52.886719 10.53125 " fill-opacity="1" fill-rule="nonzero"/></svg>